<svg width="15" height="15" viewBox="0 0 15 15" fill="none" xmlns="http://www.w3.org/2000/svg">
<g id="cancel_24px">
<path id="icon/navigation/cancel_24px" fill-rule="evenodd" clip-rule="evenodd" d="M1.25 7.5C1.25 4.04375 4.04375 1.25 7.5 1.25C10.9563 1.25 13.75 4.04375 13.75 7.5C13.75 10.9563 10.9563 13.75 7.5 13.75C4.04375 13.75 1.25 10.9563 1.25 7.5ZM9.30623 10.1875C9.54998 10.4312 9.94373 10.4312 10.1875 10.1875C10.425 9.94375 10.425 9.54375 10.1875 9.30625L8.38123 7.5L10.1875 5.69375C10.4312 5.45 10.4312 5.05625 10.1875 4.8125C9.94373 4.56875 9.54998 4.56875 9.30623 4.8125L7.49998 6.61875L5.69373 4.8125C5.44998 4.56875 5.05623 4.56875 4.81248 4.8125C4.69545 4.92927 4.62968 5.0878 4.62968 5.25312C4.62968 5.41845 4.69545 5.57698 4.81248 5.69375L6.61873 7.5L4.81248 9.30625C4.69545 9.42302 4.62968 9.58155 4.62968 9.74687C4.62968 9.9122 4.69545 10.0707 4.81248 10.1875C5.05623 10.4312 5.44998 10.4312 5.69373 10.1875L7.49998 8.38125L9.30623 10.1875Z" fill="#E5E5E5"/>
</g>
</svg>
